<?xml version="1.0" standalone="no"?>
<!DOCTYPE svg PUBLIC "-//W3C//DTD SVG 20010904//EN"
 "http://www.w3.org/TR/2001/REC-SVG-20010904/DTD/svg10.dtd">
<svg version="1.0" xmlns="http://www.w3.org/2000/svg"
 width="731.000000pt" height="628.000000pt" viewBox="0 0 731.000000 628.000000"
 preserveAspectRatio="xMidYMid meet">

<g transform="translate(0.000000,628.000000) scale(0.100000,-0.100000)"
fill="#000000" stroke="none">
<path d="M3356 6100 c-199 -17 -476 -74 -661 -136 -213 -71 -454 -180 -480
-218 -24 -33 -19 -93 10 -121 36 -37 79 -32 182 18 269 131 540 213 828 252
55 7 101 12 102 11 1 -1 -23 -28 -54 -61 -74 -81 -218 -249 -273 -320 -104
-136 -200 -278 -330 -487 l-29 -47 -538 6 c-296 3 -540 7 -542 10 -9 7 234
239 325 311 51 39 95 79 98 88 24 62 -23 134 -88 134 -38 0 -112 -53 -279
-203 -199 -179 -428 -471 -575 -733 -72 -130 -174 -362 -209 -479 l-19 -59
-69 -16 c-39 -9 -94 -29 -124 -45 -74 -41 -163 -140 -198 -223 l-28 -67 0
-515 0 -515 29 -69 c22 -52 47 -87 95 -137 76 -76 128 -106 226 -129 l69 -16
19 -59 c39 -130 142 -360 225 -505 249 -433 581 -779 1001 -1042 801 -502
1818 -575 2696 -193 149 65 322 160 335 185 19 35 12 89 -15 115 -40 41 -76
33 -236 -48 -191 -97 -336 -156 -494 -199 -124 -34 -338 -78 -415 -85 l-75 -6
75 82 c202 222 384 462 524 691 15 25 41 66 57 92 l29 48 539 0 c297 0 542 -4
545 -8 5 -8 -185 -199 -286 -289 -43 -37 -48 -46 -48 -83 0 -54 36 -90 91 -90
47 0 114 52 279 219 311 315 566 726 684 1106 l22 69 69 16 c39 9 94 29 124
45 74 41 163 140 198 223 l28 67 0 515 0 515 -28 67 c-35 83 -124 182 -198
223 -30 16 -85 36 -123 45 -69 15 -69 15 -84 60 -148 467 -471 954 -845 1276
-148 127 -237 193 -386 286 -354 222 -758 364 -1191 418 -120 15 -454 20 -584
10z m609 -205 c93 -9 332 -62 457 -101 289 -92 557 -231 812 -421 124 -92 397
-347 396 -370 0 -10 -115 -13 -540 -13 l-540 0 -30 48 c-130 210 -227 353
-330 486 -69 90 -166 204 -228 271 -32 33 -68 73 -82 88 l-25 29 25 -6 c14 -2
52 -7 85 -11z m-235 -132 c127 -131 228 -247 342 -398 81 -106 248 -354 248
-367 0 -5 -324 -8 -721 -8 -616 0 -720 2 -716 14 22 56 247 372 376 526 116
139 321 350 341 350 8 0 66 -53 130 -117z m-1205 -1010 c-36 -69 -105 -212
-120 -253 -8 -19 -28 -69 -45 -110 -18 -41 -52 -131 -76 -200 l-43 -125 -607
-3 -607 -2 7 31 c21 104 173 415 289 592 l78 117 574 0 575 0 -25 -47z m1988
-100 c40 -82 80 -166 89 -188 10 -22 31 -74 48 -115 44 -104 100 -260 100
-276 0 -12 -179 -14 -1150 -14 -971 0 -1150 2 -1150 14 0 16 56 172 100 276
17 41 38 92 47 114 9 21 49 105 89 187 l73 149 841 0 840 0 73 -147z m1360 38
c85 -127 203 -354 252 -481 19 -52 40 -105 45 -118 7 -16 6 -24 -3 -27 -6 -3
-281 -4 -611 -3 l-598 3 -33 96 c-64 190 -163 425 -247 587 l-27 52 576 -2
577 -3 69 -104z m570 -837 c51 -17 116 -74 144 -126 17 -31 18 -70 18 -528 l0
-495 -32 -51 c-18 -27 -46 -60 -63 -72 -74 -55 117 -52 -2909 -52 -3113 0
-2849 -6 -2928 69 -81 78 -78 55 -78 601 0 547 -3 523 79 601 76 73 -181 67
2922 68 2529 1 2805 -1 2847 -15z m-4159 -1644 c58 -166 121 -317 195 -473 34
-70 61 -130 61 -132 0 -3 -256 -5 -570 -5 l-570 0 -80 123 c-109 165 -267 487
-286 587 l-7 30 607 -2 607 -3 43 -125z m2466 116 c0 -16 -56 -172 -100 -276
-17 -41 -38 -93 -48 -115 -9 -22 -49 -106 -89 -187 l-73 -148 -838 0 -837 0
-47 88 c-49 92 -142 292 -182 395 -43 107 -86 230 -86 244 0 11 209 13 1150
13 971 0 1150 -2 1150 -14z m1423 8 c3 -3 2 -16 -3 -27 -5 -12 -26 -65 -46
-117 -63 -165 -183 -390 -280 -527 l-45 -63 -574 0 -574 0 27 53 c29 56 85
176 127 272 40 90 67 164 150 403 3 9 134 12 608 12 332 0 606 -3 610 -6z
m-1856 -939 c-5 -11 -140 -214 -207 -309 -116 -166 -477 -566 -510 -566 -23 0
-260 250 -381 402 -129 160 -116 143 -244 333 l-94 140 672 5 c370 3 694 6
721 8 39 2 47 -1 43 -13z m-1633 -43 c188 -305 354 -529 569 -764 42 -47 77
-87 77 -90 0 -8 -139 12 -265 37 -422 84 -817 267 -1156 537 -106 84 -289 255
-320 299 l-20 29 543 0 543 0 29 -48z"/>
<path d="M1629 3621 c-19 -19 -29 -40 -29 -59 0 -16 43 -148 96 -293 52 -145
111 -309 131 -364 40 -112 74 -155 123 -155 61 0 83 35 174 290 80 224 85 234
96 205 14 -37 114 -309 141 -385 27 -75 48 -99 92 -107 68 -11 93 21 152 187
29 82 156 433 190 523 14 37 25 82 25 98 0 42 -48 89 -90 89 -67 0 -77 -14
-150 -218 -27 -75 -61 -168 -75 -207 -14 -38 -28 -77 -31 -85 -5 -15 -42 76
-128 320 -62 176 -101 215 -179 179 -34 -15 -41 -31 -117 -243 -84 -232 -93
-256 -100 -256 -3 0 -27 60 -53 133 -119 329 -130 355 -162 367 -45 17 -75 11
-106 -19z"/>
<path d="M3019 3621 c-46 -46 -47 -43 81 -391 15 -41 55 -154 89 -250 78 -219
112 -257 194 -219 34 15 41 31 117 243 84 233 93 256 100 256 7 0 17 -24 101
-260 55 -154 76 -201 99 -222 55 -50 117 -30 150 47 10 24 52 137 94 252 41
114 82 226 90 248 91 242 92 251 47 296 -31 31 -64 36 -104 18 -30 -14 -42
-34 -76 -127 -15 -42 -51 -142 -80 -222 -29 -80 -56 -148 -60 -152 -4 -4 -23
38 -43 95 -121 334 -136 371 -162 394 -15 13 -40 23 -56 23 -51 0 -83 -43
-129 -170 -22 -63 -60 -169 -85 -235 -43 -117 -45 -119 -56 -90 -6 17 -43 116
-80 222 -38 105 -76 205 -85 223 -29 56 -100 67 -146 21z"/>
<path d="M4417 3630 c-56 -45 -55 -50 193 -725 42 -116 71 -155 116 -155 50 0
85 30 105 90 18 54 138 382 150 410 10 23 18 6 81 -165 38 -104 76 -210 85
-235 19 -57 63 -100 103 -100 57 0 82 39 154 240 36 102 95 265 131 364 36 98
65 192 65 208 0 37 -48 88 -84 88 -34 0 -70 -17 -85 -42 -7 -11 -33 -77 -58
-147 -120 -332 -124 -341 -131 -321 -3 8 -34 94 -69 190 -36 96 -71 196 -79
222 -28 90 -106 124 -163 71 -26 -26 -88 -181 -179 -451 -8 -24 -18 -40 -23
-35 -4 4 -39 96 -77 203 -38 107 -78 214 -87 238 -28 68 -97 92 -148 52z"/>
</g>
</svg>
